<svg width="24" height="24" viewBox="0 0 24 24" fill="none" xmlns="http://www.w3.org/2000/svg">
<path d="M11.995 7.57799V13.855M12.043 17.326H12.034M10.367 4.46199L2.75201 17.655C2.58663 17.9417 2.49963 18.2668 2.49976 18.5977C2.49989 18.9287 2.58714 19.2538 2.75276 19.5403C2.91837 19.8268 3.15649 20.0647 3.4432 20.23C3.7299 20.3953 4.05507 20.4822 4.38601 20.482H19.614C19.9449 20.482 20.2699 20.395 20.5565 20.2296C20.843 20.0642 21.081 19.8264 21.2465 19.5399C21.412 19.2534 21.4992 18.9283 21.4993 18.5975C21.4994 18.2666 21.4124 17.9416 21.247 17.655L13.633 4.46199C13.4676 4.17518 13.2296 3.93699 12.943 3.77137C12.6563 3.60575 12.3311 3.51855 12 3.51855C11.6689 3.51855 11.3437 3.60575 11.057 3.77137C10.7704 3.93699 10.5324 4.17518 10.367 4.46199Z" stroke="#52525C" stroke-width="1.5" stroke-linecap="round" stroke-linejoin="round"/>
</svg>
