<svg width="24" height="24" viewBox="0 0 24 24" fill="none" xmlns="http://www.w3.org/2000/svg">
<path d="M6.9 12.087L9.564 14.75C9.65787 14.8445 9.7695 14.9195 9.89247 14.9706C10.0154 15.0218 10.1473 15.0482 10.2805 15.0482C10.4137 15.0482 10.5456 15.0218 10.6685 14.9706C10.7915 14.9195 10.9031 14.8445 10.997 14.75L16.364 9.382M12 21.5C14.5196 21.5 16.9359 20.4991 18.7175 18.7175C20.4991 16.9359 21.5 14.5196 21.5 12C21.5 9.48044 20.4991 7.06408 18.7175 5.28249C16.9359 3.50089 14.5196 2.5 12 2.5C9.48044 2.5 7.06408 3.50089 5.28249 5.28249C3.50089 7.06408 2.5 9.48044 2.5 12C2.5 14.5196 3.50089 16.9359 5.28249 18.7175C7.06408 20.4991 9.48044 21.5 12 21.5Z" stroke="#52525C" stroke-width="1.5" stroke-linecap="round" stroke-linejoin="round"/>
</svg>
