<svg width="24" height="24" viewBox="0 0 24 24" fill="none" xmlns="http://www.w3.org/2000/svg">
<path d="M5.47001 6.015V18.529C5.46987 18.8864 5.54017 19.2403 5.67686 19.5704C5.81356 19.9006 6.01398 20.2006 6.26668 20.4533C6.51937 20.706 6.81938 20.9065 7.14957 21.0431C7.47976 21.1798 7.83364 21.2501 8.19101 21.25H15.809C16.5304 21.25 17.2222 20.9634 17.7323 20.4533C18.2424 19.9432 18.529 19.2514 18.529 18.53V6.014M3.29401 6.015H20.706M8.73501 6.015V4.382C8.73474 4.16753 8.77681 3.95511 8.85879 3.75692C8.94078 3.55873 9.06107 3.37867 9.21277 3.22706C9.36448 3.07545 9.54461 2.95527 9.74285 2.87341C9.94109 2.79154 10.1535 2.74961 10.368 2.75H13.632C13.8465 2.74961 14.0589 2.79154 14.2572 2.87341C14.4554 2.95527 14.6355 3.07545 14.7872 3.22706C14.9389 3.37867 15.0592 3.55873 15.1412 3.75692C15.2232 3.95511 15.2653 4.16753 15.265 4.382V6.015M9.82401 16.992V11.553M14.177 16.992V11.553" stroke="#18181B" stroke-width="1.5" stroke-linecap="round" stroke-linejoin="round"/>
</svg>
